<?xml version="1.0" encoding="UTF-8" standalone="no"?>
<svg
   version="1.1"
   width="12.49998in"
   height="13.136786in"
   viewBox="0 0 900.00035 945.8497"
   id="svg5"
   sodipodi:docname="Logo_Autko.cdr"
   inkscape:export-filename="Logo_Autko.cdr.svg"
   inkscape:export-xdpi="96"
   inkscape:export-ydpi="96"
   xmlns:inkscape="http://www.inkscape.org/namespaces/inkscape"
   xmlns:sodipodi="http://sodipodi.sourceforge.net/DTD/sodipodi-0.dtd"
   xmlns="http://www.w3.org/2000/svg"
   xmlns:svg="http://www.w3.org/2000/svg">
  <defs
     id="defs5" />
  <sodipodi:namedview
     id="namedview5"
     pagecolor="#ffffff"
     bordercolor="#000000"
     borderopacity="0.25"
     inkscape:showpageshadow="2"
     inkscape:pageopacity="0.0"
     inkscape:pagecheckerboard="0"
     inkscape:deskcolor="#d1d1d1"
     inkscape:document-units="in">
    <inkscape:page
       x="6.8841531e-13"
       y="0"
       width="900.00031"
       height="945.84973"
       id="page2"
       margin="0"
       bleed="0" />
  </sodipodi:namedview>
  <path
     d="M 7.4342064e-6,1.0216451e-5 C 62.330208,0.15991021 124.67001,0.02021021 186.99991,0.07001021 c 237.67,-0.0201 475.3301,0.0301 713.0001,-0.03 V 945.85011 c -299.9999,-0.1 -600.0001,-0.0402 -900.0000025657933,-0.03 z"
     style="fill:none"
     id="path1" />
  <path
     d="m 455.76711,67.63891 a 399.7684,405.1305 0 0 1 399.7684,405.1306 399.7684,405.1305 0 1 1 -399.7684,-405.1306 z"
     style="fill:none"
     id="path2" />
  <path
     d="m 649.69001,221.84991 c 8.61,-1.3799 17.5099,-1.23 25.9501,1.1302 16.2099,4.0399 28.58,18.5499 31.96,34.6498 2.49,11.2102 3.5,22.8901 2.0798,34.3301 -0.5199,13.1199 -4.3299,26.5601 -12.8699,36.76 -8.1901,9.3801 -20.4301,14.8099 -32.7999,15.3201 -13.72,1.01 -28.3102,-3.0702 -38.2102,-12.9302 -10.0298,-9.9697 -14.51,-24.2898 -15.3899,-38.1198 -0.1099,-13.1601 -1.1301,-26.7602 3.2599,-39.41 3.3902,-10.3301 9.6902,-20.2201 19.29,-25.74 5.0202,-3.28 10.8902,-4.8802 16.7301,-5.9902 z m 5.6001,22.3101 c -5.2801,1.18 -9.6902,4.93 -12.6102,9.3801 -3.3899,5.8399 -4.64,12.6898 -4.5499,19.3898 -0.61,8.53 -0.1301,17.0802 0.36,25.6 0.8901,9.3401 6.48,19.0502 15.95,21.7301 7.5799,2.8899 16.4401,-0.3798 21.39,-6.5401 4.5399,-5.2699 5.9201,-12.3698 6.44,-19.1098 0.3901,-9.2899 0.7699,-18.64 -0.25,-27.9 -0.87,-7.4301 -3.8699,-15.19 -10.1801,-19.6401 -4.6698,-3.5399 -10.9698,-4.0099 -16.5498,-2.91 z m -421.1402,-21.3401 c 6.2502,-0.6797 12.57,-0.0998 18.8502,-0.2599 5.5998,0.17 11.2498,-0.4099 16.8298,0.28 0.2801,0.58 0.8201,1.73 1.1001,2.3001 9.87,34.0599 19.7099,68.1298 29.45,102.23 1.0701,4.7398 3.67,9.3799 2.8301,14.3598 -7.0801,0.5 -14.18,0.0901 -21.27,0.32 -2.13,0.0902 -4.9601,-0.01 -5.7402,-2.45 -2.6098,-6.9397 -4.0099,-14.2798 -6.6699,-21.2 -0.7401,-2.2997 -3.63,-1.77 -5.5001,-1.8899 -10.18,0.4499 -20.3998,-0.3999 -30.56,0.4 -1.4899,7.42 -3.64,14.6999 -5.51,22.03 -0.4498,2.23 -2.8298,3.17 -4.89,3.0101 -6.66,-0.0402 -13.32,0.1698 -19.9698,-0.0501 -1.44,0.0399 -2.9602,-1.5599 -2.5401,-2.9999 0.6599,-4.1001 2.1299,-8.0201 3.13,-12.0402 9.3801,-33.0299 18.8501,-66.03 28.37,-99.0198 0.53,-1.73 1.04,-3.5201 2.0899,-5.0202 z m 15.2502,33.4602 c -2.81,10.8198 -5.3402,21.7199 -8.4901,32.4601 -0.18,1.1999 -1.0499,2.5097 -0.4201,3.7199 2.05,0.8498 4.3002,0.9 6.4902,0.86 4.9598,-0.1001 9.9899,0.29 14.8799,-0.8802 0.07,-4.4798 -1.4201,-8.75 -2.4701,-13.0498 -2.41,-9.1899 -4.18,-18.58 -7.41,-27.5301 -1.1999,1.2501 -2.2198,2.6802 -2.5798,4.4201 z m 64.3098,-30.28 c -0.4098,-2.3202 2.2601,-3.6601 4.2401,-3.4401 7.0101,0 14.0199,-0.0899 21.03,0.0501 1.7299,-0.1202 2.7601,1.73 2.4499,3.2899 -0.0601,25.0101 -0.03,50.0301 -0.01,75.0399 -0.0201,4.8302 0.29,10.19 3.4801,14.11 5.8499,5.9301 15.8899,6.48 23.0899,2.8202 5.0601,-3.1102 7.3001,-9.2701 7.5699,-14.9502 0.25,-26.7398 -0.1698,-53.4898 0.22,-80.2199 7.74,-0.2801 15.4902,-0.15 23.2401,-0.1301 1.44,-0.1398 3.8101,0.4703 3.57,2.3502 0.1199,25.9999 0,51.9999 0.0499,77.9998 0.6701,15.7201 -8.83,32.25 -24.05,37.5401 -9,3.8001 -19.01,4.14 -28.6098,3.27 -12.46,-1.1599 -24.55,-7.81 -31.14,-18.61 -4.8002,-7.7899 -5.3201,-17.2998 -5.15,-26.2001 0.0298,-24.3099 0.0499,-48.6198 0.0198,-72.9198 z m 102.6,0.9499 c -0.25,-2.1399 1.3,-4.65 3.6701,-4.3699 25.3499,-0.0301 50.6999,-0.0902 76.0399,0.0198 2.27,-0.1298 3.1901,2.41 3.2601,4.2801 0.1401,5.36 0.0499,10.72 0.0499,16.0801 0.1001,2.0199 -0.8498,4.86 -3.35,4.6199 -8.1898,0.2701 -16.3899,0.0901 -24.59,0.01 -0.0498,30.1201 0.0202,60.2402 -0.0198,90.3702 0.32,2.0999 -1.1602,4.14 -3.4002,3.9498 -6.9599,0.2001 -13.9399,0.0201 -20.8998,0 -2.09,0.1103 -2.73,-2.3298 -2.59,-3.9799 0,-30.0101 -0.0301,-60.0199 0.11,-90.03 -8.1902,-0.4601 -16.4002,-0.01 -24.59,-0.2401 -1.7201,0.1301 -3.8001,-0.9298 -3.6201,-2.8899 -0.2299,-5.94 -0.0899,-11.88 -0.0701,-17.82 z m 98.2202,-3.57 c 1.95,-1.1599 4.29,-0.79 6.45,-0.8699 5.6798,0.1199 11.3499,-0.1202 17.03,0.0799 2.2898,-0.1001 2.99,2.45 3.1498,4.28 0.2801,6.3499 0.1902,12.7199 -0.4198,19.0599 -0.0901,8.17 -0.1601,16.3602 0.1199,24.5401 1.4899,-1.4 2.9101,-2.8899 4.0499,-4.5898 7.9602,-12.0402 16.0702,-23.9803 24.1001,-35.9703 1.8601,-2.4899 3.0799,-5.8198 6.0599,-7.2 7.9801,-0.36 15.9801,-0.0898 23.9701,-0.1499 2.41,-0.58 4.79,2.3799 2.9801,4.42 -11.4602,17.3999 -23.1702,34.6601 -34.93,51.8701 9.8598,15.55 19.0698,31.5099 28.7898,47.1398 2.4701,4.9502 6.3202,9.1701 8.1202,14.4601 -1.5801,0.73 -3.1502,1.6801 -4.9502,1.5401 -7.3599,-0.0502 -14.7299,0.0198 -22.0898,-0.0601 -2.5302,0.2702 -3.7701,-2.2399 -4.9802,-3.9801 -8.8398,-14.2098 -17.43,-28.5698 -26.0898,-42.88 -2.5002,2.3103 -5.29,5.11 -5.1902,8.7903 -0.0899,11.6699 0.1202,23.3399 -0.0199,35.0098 0.2801,2.02 -1.7801,3.42 -3.63,3.1099 -7.53,-0.2599 -15.1101,0.5102 -22.5899,-0.4898 -0.5301,-4.8501 -0.3002,-9.72 -0.3302,-14.5701 0.0102,-31.3299 0.0102,-62.6598 0,-93.9901 0.0901,-3.1799 -0.3498,-6.4298 0.4002,-9.5499 z m -231.4301,167.6299 c 16.2899,-7.4097 34.3199,-9.2999 51.9001,-11.3199 7.35,-0.1301 14.65,-1.1599 22,-1.0099 15.98,0.0601 32,-0.58 47.9299,0.7999 29.6101,-0.04 57.31,13.0601 81.64,28.8901 8.8101,5.3198 16.71,12.7398 26.9601,15.1798 19.6999,4.18 40.1899,6.3502 58.4898,15.3301 10.0502,4.3999 20.3802,10.5301 25.0001,20.99 -4.4801,0.8101 -8.8699,2.0401 -13.35,2.8499 -13.1899,2.2201 -26.7599,-1.1599 -39.8801,1.4301 1.0701,0.4601 2.1402,1.0599 3.35,1.1702 12.0302,1.1199 24.1302,3.5197 36.2302,1.7597 4.6499,-0.76 9.32,-1.4899 13.9898,-2.1399 0.21,2.5101 -0.32,5.3 1.15,7.5399 1.8902,3.3202 5.15,6.19 5.3501,10.2302 -0.6301,4.4499 -2.9701,8.61 -2.6399,13.22 -0.5,4.2599 3.46,7.5999 2.8199,11.8499 -1.04,3.21 -4.35,4.8699 -7.34,5.8799 -6.7799,2.1702 -13.7401,3.7301 -20.6201,5.5701 -2.2399,0.32 -3.3998,2.4599 -4.9498,3.85 -2.8001,2.96 -6.8202,4.3402 -10.7201,5.11 -10.8601,1.8 -22.7999,2.7499 -32.72,-2.9899 -1.8899,-0.9 -2.5699,-2.99 -3.5601,-4.65 -8.27,-0.39 -16.5798,0.0799 -24.83,-0.8002 -4.2999,-0.3799 -8.6199,-0.33 -12.93,-0.4297 -2.55,3.7298 -5.8198,7.1197 -10.11,8.7698 -4.8799,1.7801 -9.9499,3.49 -15.2,3.4401 -6.26,-0.0102 -12.81,0.5899 -18.6698,-2.09 -7.49,-3.02 -12.67,-9.7801 -15.73,-17.0402 -5.6602,-11.5098 -4.9502,-25.38 0.0598,-36.9799 4.21,-10.6801 17.9201,-16.6499 28.44,-11.6799 10.2702,4.7299 16.41,15.6098 18.43,26.3798 1.5701,6.8601 1.26,13.97 -0.21,20.8202 6.0701,-13.29 3.4801,-28.9602 -2.8199,-41.6702 -4.5499,-8.4999 -14.2501,-12.9999 -23.5599,-13.64 -8.8002,0.0102 -17.06,5.11 -22.32,11.9702 -6.5401,9.3999 -7.02,21.23 -6.4202,32.2698 -11.77,-0.9399 -23.5199,-2.1299 -35.2599,-3.4299 -15.6401,-1.7101 -31.3299,-2.8199 -46.9701,-4.6301 -13.75,-1.12 -27.4498,-2.99 -41.2299,-3.6198 24.5999,4.6701 49.57,7.0798 74.3701,10.47 16.5098,1.7498 32.9998,3.85 49.5499,5.2498 1.15,4.2202 2.73,8.31 4.4101,12.3503 -39.7202,-2.3503 -79.3701,-5.4803 -119.0701,-7.7701 -7.6,-0.2001 -15.1501,-1.69 -22.7801,-1.1801 -1.77,0.65 -2.7598,2.52 -4.0898,3.79 -7.7902,8.9699 -18.94,15.6401 -31.11,15.55 -13.0501,-0.26 -26.0801,-1.4301 -39.0801,-2.67 -4.8801,-0.65 -9.8901,-0.8101 -14.62,-2.2901 -0.2199,-0.6999 -0.6701,-2.0999 -0.8901,-2.81 12.9402,0.1202 25.8801,0.3901 38.8202,0.18 -3.3701,-4.2899 -6.9001,-8.6499 -8.49,-13.97 -2.0101,-5.1599 -1.5401,-10.7699 -1.6002,-16.1798 -0.2398,-8.6499 2.52,-17.82 8.8801,-23.9001 4.9799,-4.0799 11.78,-6.98 18.26,-5.2698 7.77,2.0298 14.3299,7.9599 17.3899,15.3598 2.7902,5.8901 3.3801,12.4801 3.7401,18.9099 1.7399,-9.9099 -0.8,-20.2998 -5.5001,-29.0699 -4.3999,-5.9899 -11.6799,-9.54 -18.97,-10.2999 -7.56,0.1199 -14.7898,3.9299 -19.91,9.3798 -4.46,4.7602 -5.4799,11.4602 -6.6699,17.6102 -1.3201,5.7799 -0.72,11.7499 -0.6401,17.6298 -8.3199,-3.4398 -15.5999,-10.2798 -18.0499,-19.1199 -2.3901,-8.7599 -2.5001,-18.0499 -0.8399,-26.9601 -9.5901,-0.4498 -19.1701,-0.9499 -28.7501,-1.47 0.1199,-1.08 0.2401,-2.1498 0.3699,-3.2199 10.34,-0.79 20.9101,0.79 31.07,-1.7799 0.72,-3.7099 0.5902,-7.52 1.4001,-11.2002 2.9701,1.8502 5.29,4.5201 7.9299,6.7901 0.75,-4.72 -0.8601,-9.2401 -3.0498,-13.3299 0.72,-1.62 1.44,-3.24 2.1498,-4.8501 -17.61,0.3501 -35.1998,-0.3399 -52.7998,-0.6401 -0.2302,-0.7599 -0.7002,-2.2799 -0.9301,-3.0398 8.5799,-0.11 17.1199,-1.2102 25.71,-1.08 11.6699,0.21 23.2999,-1.1002 34.9801,-0.7702 15.51,1.04 29.2498,-7.5498 42.0199,-15.2 -11.6799,0.2302 -23.3399,-0.5198 -35.0101,-0.2999 -13.6599,-0.4901 -27.33,-1.1001 -40.9998,-1.0099 -1.6702,0.07 -3.71,-2.56 -1.4902,-3.5399 9.8102,-0.8901 19.6702,-1.2703 29.52,-1.3802 11.63,-1.0599 23.3201,-0.6699 34.9801,-1.0001 9.19,-1.15 18.4799,-0.4598 27.7101,-0.9198 3.6499,-0.8601 6.9299,-2.81 10.3799,-4.2302 z m 45.8799,-2.8199 c -15.6498,0.9799 -30.3599,7.3599 -43.9398,14.8099 -13.9201,7.9702 -27.26,17.2301 -42.5401,22.4702 29.4301,3.5799 59.0799,4.8898 88.56,7.8999 42.1999,3.74 84.5101,6.4899 126.5,12.2301 13.7001,1.8598 27.2001,4.8699 40.6499,7.9999 4.0201,1.2699 8.6902,1.69 11.8001,4.8201 -9.36,-0.6702 -18.4399,-3.4801 -27.8101,-3.93 4.6301,14.0199 20.98,20.45 34.7201,18.3498 8.5099,-1.7498 16.78,-4.75 24.34,-9.04 -5.0499,-2.2597 -10.3399,-3.8698 -15.48,-5.87 -9.3699,-3.6799 -18.6599,-7.6399 -28.4199,-10.1599 -23.18,-6.4301 -47.0701,-9.6899 -70.8301,-13.1 -2.6501,-0.5499 -6.02,-0.07 -7.8001,-2.5399 -13.3798,-14.93 -26.9,-31.0402 -45.7699,-39.1201 -13.7101,-6.12 -29.2799,-6.7799 -43.9801,-4.82 z m 177.4602,118.6699 c 3.24,2.1101 7.3199,1.73 10.9298,2.81 10,2.8 20.3601,0.3702 30.5002,0.03 8.17,-0.8898 16.42,-0.4498 24.5798,-1.4298 -1.0899,-0.5102 -2.2198,-0.7801 -3.39,-0.8002 -19.3399,-0.2097 -38.7198,0.61 -58.0198,-0.8699 -1.54,-0.0301 -3.0801,0.0501 -4.6,0.2599 z m -189.6302,-111.93 c 14.9601,-3.02 30.64,-3.7697 45.5601,-0.0898 9.15,2.7198 17.4201,7.8999 24.5801,14.1401 6.59,6.3598 13.46,12.7697 17.6,21.0798 -4.5901,3.0801 -10.4601,1.0701 -15.5902,0.8802 -33.84,-2.1201 -67.65,-4.7801 -101.4599,-7.2202 -5.37,-0.5799 -10.8899,0.0301 -16.1201,-1.5199 -1.3898,-0.9301 -1.4598,-2.8202 0.0102,-3.7001 5.5599,-6.2699 13.2199,-9.9601 20.5299,-13.7299 8.0799,-3.78 16.2601,-7.4899 24.8899,-9.8402 z"
     style="fill:none"
     id="path3" />
  <path
     d="m 661.07001,399.84011 c 3.8599,-10.04 13.97,-17.5802 24.87,-17.42 7.8401,-0.54 16.27,1.9499 21.4501,8.1198 5.4399,6.7601 6.5199,15.9602 5.9,24.3502 -0.1202,1.1999 -0.8802,3.1 -2.3502,2.9398 -11.3598,0.22 -22.7299,-0.1998 -34.0798,0.18 0.0799,6.08 5.0598,11.4602 11.09,12.13 6.0599,1.0202 11.1498,-2.88 16.0398,-5.76 2.7301,1.23 4.6602,3.7602 6.9302,5.6801 0.72,0.9099 2.62,1.9199 1.4898,3.27 -9.3999,10.4899 -25.7998,14.0599 -38.4899,7.67 -8.1799,-3.8199 -13.65,-12.1901 -14.72,-21.0501 -1.3201,-6.7098 -0.54,-13.7398 1.87,-20.1098 z m 22.6,-3.1802 c -4.0901,2.0002 -6.6999,6.3202 -6.73,10.8601 7.0501,0.01 14.1001,0.0202 21.1601,0 -0.4,-3.2301 -0.97,-6.8799 -3.8101,-8.92 -2.7601,-2.7701 -7.0599,-2.92 -10.62,-1.9401 z m -80.9299,-13.0198 c 15.1798,-0.0399 30.3599,-0.0201 45.54,0.0199 -0.0301,4.03 0.3699,8.1 -0.11,12.13 -7.99,11.1801 -17.28,21.4801 -24.8602,32.97 8.68,0.79 17.4201,-0.2299 26.0901,0.6299 0.25,3.9302 0.79,7.9702 -0.0201,11.8701 -1.2098,1.7402 -3.53,1.2801 -5.33,1.4 -12.9498,-0.14 -25.9098,0.1001 -38.8499,-0.11 -2.9501,0.0301 -2.5501,-3.5799 -2.6099,-5.6001 0.1698,-3.0098 -0.76,-6.52 1.4899,-8.97 7.5101,-9.9997 15.48,-19.65 22.9501,-29.6898 -8.09,-0.0802 -16.1702,0.08 -24.2501,-0.18 -0.21,-4.82 -0.1701,-9.6499 -0.0399,-14.47 z m -343.3502,158.5401 c 7.3001,-4.7302 15.7201,-8.3302 24.5602,-8.2302 6.1699,0.0899 12.5198,-0.5201 18.4799,1.52 6.6799,1.9301 13.3801,6.1999 15.7499,13.0501 3.9101,9.8799 -3.4299,22.5899 -14.1398,23.5899 -3.8202,-0.2001 -7.52,-1.3201 -11.1702,-2.3799 0.5301,-5.2002 4.68,-9.3802 4.29,-14.8102 0.9402,-7.7499 -8.3098,-13.2299 -15.1098,-10.73 -12.4101,3.0402 -18.1902,20.12 -10.3901,30.1601 5.2701,7.2601 12.1101,13.1499 18.35,19.55 4.2101,4.4501 9.2101,8.31 12.2701,13.7199 2.8298,5.2402 4.0498,11.4401 2.6898,17.3002 -1.7799,9.9898 -7.99,19.08 -16.6998,24.3099 -15.0701,9.21 -34.01,12.53 -51.12,7.7099 -7.0801,-2.1398 -14.2801,-5.25 -19.1602,-11.0097 -4.1099,-4.5803 -6.51,-11.2601 -4.4399,-17.2803 2.92,-8.93 11.5401,-15.4398 20.7899,-16.5399 3.9302,-0.3801 8.7701,-1.44 11.9301,1.6101 1.4001,2.27 -0.7299,4.64 -1.7801,6.59 -4.07,5.9998 -6.5798,14.1899 -2.92,20.98 1.95,4.83 7.2902,7.7199 12.38,7.42 7.02,0.4 14.55,-2.23 18.87,-7.96 3.9402,-5.97 5.8501,-13.9699 2.9401,-20.7501 -7.3701,-14.3601 -22.82,-22.29 -30.5901,-36.3399 -4.2899,-7.5002 -4.1199,-16.8401 -0.9898,-24.73 3.16,-7.0002 8.7499,-12.7001 15.2098,-16.7499 z m 354.53,4.7097 c 3.1102,-3.53 6.8102,-8.17 12.1102,-7.34 5.51,0.86 8.2998,7.56 5.8898,12.3503 -4.0099,4.7698 -9.8498,7.4199 -14.76,11.1398 -4.43,2.63 -8.5598,7.1399 -14.1599,6.4301 -2.2601,-0.1 -4.0901,-1.58 -6.01,-2.5602 4.9501,-7.2199 11.3899,-13.2599 16.9299,-20.02 z m -270.9,4.1202 c 2.8499,-0.97 5.9902,-0.6401 8.96,-1.0401 3.9802,-0.32 8.2202,-0.8299 11.85,1.2501 0.1701,8.1099 -5.5199,15.0299 -5.4998,23.04 5.91,1.4298 12.2199,0.5698 17.97,2.45 0.25,0.33 0.75,0.9899 1,1.3198 -0.8101,2.6703 -1.72,5.4802 -3.5702,7.6402 -6.3199,1.9599 -13.29,0 -19.4298,2.5498 -1.8902,2.81 -2.5501,6.23 -3.6,9.4102 -3.39,11.6699 -7.5501,23.1199 -10.3,34.9798 -0.7401,3.4001 -1.4902,7.2901 0.5599,10.4102 3.1699,2.23 7.3499,1.15 10.4601,-0.6301 3.89,-2.3301 7.13,-5.5701 10.3198,-8.7401 3.24,-3.4798 6.9902,-6.88 8.3001,-11.6198 2.8701,-9.1601 5.9599,-18.4901 11.8999,-26.1802 7.52,-10.44 18.82,-19.1599 32.03,-20.1399 7.5802,-0.89 15.6102,2.0401 20.24,8.2302 1.69,-2.5402 3.3602,-5.8601 6.7501,-6.2402 4.4901,-0.4099 9.22,-0.7399 13.54,0.7801 1.66,0.5499 2.0299,2.7099 1.4499,4.2001 -3.5799,14.2599 -7.8599,28.3399 -12.7599,42.2098 -1.4901,5.22 -4.3299,10.3901 -3.6099,15.9701 1.2198,3.1598 5.4899,3.1499 8.0198,1.6699 6.4902,-3.6099 11.52,-9.3101 15.6501,-15.3898 4.0901,-5.5903 5.7801,-12.42 8.03,-18.8703 1.9099,-6.9398 4.7301,-13.5799 6.48,-20.5699 0.9501,-2.98 1.36,-6.22 3.05,-8.8999 2.5501,-1.2101 5.44,-1.22 8.21,-1.3102 4.43,-0.07 8.89,-0.4898 13.29,0.2801 -0.2401,3.78 -1.3601,7.41 -2.2799,11.0701 6.4298,-3.9702 12.0798,-9.46 19.5199,-11.5599 6.4599,-2.4503 14.3901,-2.4602 19.8499,2.2399 4.5601,3.82 5.11,10.3498 3.9801,15.8199 -2.9199,14.58 -9.1499,28.22 -12.8299,42.6002 -1.29,3.0197 2.7,5.4297 5.3,4.0498 7.4199,-3.0101 13.3098,-8.7701 18.4399,-14.7501 2.0001,-4.5898 2.66,-9.6298 4.5099,-14.2798 4.9502,-14.3801 14.87,-27.75 28.9202,-34.2399 7.64,-3.1201 16.2499,-5.22 24.4298,-3.1403 6.12,1.12 11.9801,4.4601 15.45,9.7302 3.2301,4.8799 4.2602,10.81 4.7701,16.5399 4.9,-0.0799 9.6599,-1.5401 14.0701,-3.6099 0.8699,-0.4201 1.55,-1.05 2.0299,-1.8902 2.8899,-5.18 4.1,-11.05 6.4199,-16.4599 0.72,-2.1101 3.17,-2.38 5.0802,-2.3601 5.7099,-0.0298 11.45,-0.4 17.14,0.36 -0.1301,5.1902 -2.8202,9.7801 -4.17,14.6903 -3.79,13.3897 -8.5502,26.4897 -12.03,39.9699 -0.79,3.4999 -1.3501,8.1499 1.9698,10.5599 3.6201,2.0599 7.6501,-0.6001 10.48,-2.85 5.6701,-5.0799 9.57,-11.9599 11.87,-19.1701 3.9802,-12.8497 8.6902,-25.4497 12.68,-38.2998 0.7101,-2.3802 2.08,-5.4102 5.0502,-5.2001 6.1699,-0.1701 12.35,-0.29 18.5099,0.11 -0.2199,4.0501 -2.1401,7.7099 -3.31,11.5401 -4.7199,14.36 -9.7801,28.6098 -13.7999,43.1901 -0.7801,3.2298 -1.29,7.2697 1.2198,9.9099 2.8102,1.9599 6.58,1.2699 9.32,-0.4601 3.6102,-2.3601 6.4602,-5.7101 8.82,-9.29 6.2101,-9.1598 9.6902,-19.83 12.4801,-30.45 0.9601,-4.3398 1.4899,-9.3501 -1.26,-13.1598 -1.8799,-2.6201 -2.4599,-6.1402 -0.8501,-9.0502 2.7802,-6.5401 12.7701,-9.51 17.8702,-3.96 4.5099,4.17 4.14,10.9499 3.2898,16.5101 -3.7298,14.83 -10.44,28.9001 -19.44,41.25 -6.6098,8.64 -14.1698,17.0099 -23.94,22.1001 -7.02,3.6 -16.0599,4.6899 -22.89,0.0898 -3.7899,-2.2099 -5.26,-6.5401 -7.27,-10.1599 -3.03,1.83 -5.0499,4.89 -7.9798,6.87 -7.1501,5.9599 -17.4901,8.18 -26.3101,4.9198 -5.6999,-2.05 -9.82,-7.6399 -10.3201,-13.6298 -0.9898,-12.81 5.26,-24.5199 8.4802,-36.5799 -4.9,1.1999 -9.7101,2.8397 -14.3201,4.8798 -2.7201,1.0001 -3.5201,3.9699 -4.3699,6.4301 -2.2,6.9599 -5.1301,13.79 -9.5,19.69 -7.8001,9.79 -18.83,17.2999 -31.22,19.7099 -8.4401,1.44 -18.2701,0.68 -24.6302,-5.6801 -3.8999,-3.53 -5.3898,-8.7199 -7.2998,-13.43 -8.1102,8.89 -18.03,16.92 -30.1002,19.3502 -5.1098,1.1999 -11.2,0.4099 -14.76,-3.7701 -3.3098,-3.3199 -2.81,-8.43 -2.3899,-12.6799 2.59,-11.9101 7.5401,-23.12 11.1999,-34.7001 1.1401,-3.7301 2.3301,-7.8001 1.23,-11.66 -1.58,-2.92 -5.54,-2.6501 -7.99,-1.08 -10.48,5.6299 -18.04,15.9401 -21.5099,27.21 -3.3301,10.44 -6.2101,21.03 -9.9399,31.3501 -0.76,2.1098 -2.3701,4.2999 -4.87,4.18 -4.9402,0.28 -9.9402,1.51 -14.86,0.6698 -5.1602,-2.67 -1.3102,-9.0998 -0.6001,-13.3098 -5.0499,4.0799 -9.8099,8.6899 -15.91,11.2099 -7.1502,3.09 -16.1201,5.22 -23.0899,0.5799 -3.8702,-2.4899 -4.36,-7.48 -4.1701,-11.6699 -6.8301,5.6999 -13.71,12.3701 -22.8501,13.8801 -6.19,1.4499 -13.2199,0.1999 -17.8798,-4.3001 -4.2202,-3.5799 -6.5902,-8.68 -8.6901,-13.6698 -8.0099,6.3399 -15.5699,13.9597 -25.6301,16.9299 -6.0298,1.7498 -12.8999,2.6699 -18.7599,-0.1202 -4.6701,-2.1498 -7.56,-7.27 -7.3199,-12.35 -0.54,-6.3499 1.7098,-12.3698 3.4798,-18.3399 2.95,-9.0399 5.61,-18.17 8.56,-27.21 1.0602,-3.6899 2.3902,-7.35 2.6402,-11.2099 -3.99,-1.62 -8.5201,-1.47 -12.3701,-3.38 -0.72,-2.8401 0.51,-5.9902 2.5801,-7.9702 4.8399,-0.6698 10.5999,-0.61 13.9799,-4.75 4.6701,-6.2198 4.1701,-14.9599 8.7999,-21.1198 z m 259.2601,36.0898 c -10.55,5.5202 -16.3199,16.8602 -20.52,27.5202 -2.6399,7.0999 -5.15,14.58 -4.5301,22.2698 0.3402,3.6802 2.38,7.6201 6.09,8.8501 4.18,0.9201 7.9101,-2.06 10.94,-4.5499 9.26,-8.6602 15.48,-20.2802 19.2201,-32.2702 -1.3499,-3.2499 -4.97,-4.9 -6.5299,-8.0399 -2.05,-3.93 -0.8201,-8.4699 -1.2002,-12.67 -0.4499,-1.3601 -2.3298,-1.51 -3.4699,-1.1101 z m -189.6999,2.5402 c -6.91,3.41 -10.4502,10.61 -13.6301,17.2199 -2.7099,6.2101 -5.29,12.5699 -6.3499,19.3101 -0.7602,4.5499 -2.2002,9.6299 0.36,13.9099 1.2898,3.2499 5.3498,4.4601 8.4198,3.0501 7.84,-3.17 13.3001,-10.11 17.7502,-17.0201 4.2599,-6.65 5.9599,-14.5 7.1799,-22.1799 0.5899,-4.72 0.18,-10.3102 -3.67,-13.6202 -2.7099,-2.4999 -6.99,-2.4299 -10.0599,-0.6698 z"
     style="fill:none"
     id="path4" />
  <path
     d="m 202.42571,698.91141 h 6.1112 v 29.8774 h -6.1112 z m 42.1906,-0.5431 v 30.4205 h -6.1112 v -15.9346 l -7.5147,9.4158 h -1.9919 l -7.5146,-9.4158 v 15.9346 h -6.1112 v -30.4205 h 1.9919 l 12.63,16.1609 12.6298,-16.1609 z m 6.8808,0.5431 h 11.2266 c 2.0824,0 3.9385,0.4 5.5681,1.1996 1.6297,0.8 2.9047,1.9315 3.8251,3.3954 0.9207,1.4635 1.3808,3.1461 1.3808,5.0473 0,1.9012 -0.4601,3.5839 -1.3808,5.0474 -0.9204,1.4638 -2.1954,2.6031 -3.8251,3.418 -1.6296,0.8147 -3.4857,1.222 -5.5681,1.222 h -5.1154 v 10.5477 h -6.1112 z m 11.2266,13.9881 c 1.4185,0 2.5277,-0.3999 3.3273,-1.1996 0.7997,-0.7997 1.1997,-1.8485 1.1997,-3.1462 0,-1.2676 -0.4074,-2.2935 -1.2223,-3.0781 -0.8147,-0.7849 -1.9163,-1.1772 -3.3047,-1.1772 h -5.1154 v 8.6011 z m 29.7871,16.4325 c -2.8973,0 -5.5531,-0.6789 -7.9674,-2.037 -2.4142,-1.3581 -4.3307,-3.2216 -5.7492,-5.5908 -1.4185,-2.3689 -2.1274,-4.987 -2.1274,-7.8539 0,-2.8673 0.7089,-5.4851 2.1274,-7.8543 1.4185,-2.3689 3.335,-4.2327 5.7492,-5.5907 2.4143,-1.3581 5.0701,-2.037 7.9674,-2.037 2.897,0 5.5604,0.6789 7.99,2.037 2.4293,1.358 4.3608,3.2218 5.7943,5.5907 1.4335,2.3692 2.1503,4.987 2.1503,7.8543 0,2.8669 -0.7168,5.485 -2.1503,7.8539 -1.4335,2.3692 -3.365,4.2327 -5.7943,5.5908 -2.4296,1.3581 -5.093,2.037 -7.99,2.037 z m 0.0453,-5.6586 c 1.8105,0 3.4478,-0.4149 4.9116,-1.2449 1.4635,-0.8297 2.6104,-1.9917 3.4404,-3.4855 0.83,-1.4939 1.2447,-3.1915 1.2447,-5.0927 0,-1.8712 -0.4147,-3.5538 -1.2447,-5.0477 -0.83,-1.4938 -1.9769,-2.6631 -3.4404,-3.5081 -1.4638,-0.8451 -3.1011,-1.2677 -4.9116,-1.2677 -1.8411,0 -3.4857,0.415 -4.9345,1.245 -1.4485,0.83 -2.5878,1.9919 -3.4178,3.4857 -0.83,1.4939 -1.2447,3.1913 -1.2447,5.0928 0,1.9012 0.4147,3.5988 1.2447,5.0927 0.83,1.4938 1.9693,2.6558 3.4178,3.4855 1.4488,0.83 3.0934,1.2449 4.9345,1.2449 z m 39.3837,5.1154 -7.7411,-10.5477 h -4.4816 v 10.5477 h -6.1112 v -29.8774 h 11.2266 c 2.0824,0 3.9385,0.4 5.5681,1.1996 1.6297,0.8 2.9047,1.9315 3.8251,3.3954 0.9207,1.4635 1.3807,3.1461 1.3807,5.0473 0,1.9012 -0.4677,3.5912 -1.4031,5.0701 -0.9357,1.4788 -2.2184,2.6257 -3.848,3.4404 l 8.4654,11.7246 z m -12.2227,-15.9346 h 5.1154 c 1.4185,0 2.5277,-0.3923 3.3273,-1.177 0.7997,-0.7846 1.1997,-1.8258 1.1997,-3.1235 0,-1.2676 -0.4074,-2.2935 -1.2223,-3.0781 -0.8147,-0.7849 -1.9163,-1.1772 -3.3047,-1.1772 h -5.1154 z m 28.474,-8.4201 h -9.5516 v -5.5227 h 25.2598 v 5.5227 h -9.5969 v 24.3547 h -6.1113 z m 39.61,24.8979 c -2.5351,0 -4.8062,-0.5959 -6.8131,-1.7881 -2.0069,-1.192 -3.5836,-2.799 -4.7305,-4.8212 l 4.21,-3.1686 c 0.9658,1.3278 2.022,2.384 3.1689,3.1686 1.1466,0.7849 2.535,1.1772 4.1647,1.1772 1.3277,0 2.3689,-0.2942 3.1235,-0.8827 0.7545,-0.5887 1.1318,-1.396 1.1318,-2.4219 0,-0.8753 -0.2792,-1.5469 -0.8376,-2.0146 -0.5581,-0.4677 -1.5466,-1.0335 -2.965,-1.6977 l -3.2143,-1.4485 c -2.2935,-1.0261 -4.0739,-2.2181 -5.3416,-3.5761 -1.2676,-1.3581 -1.9012,-3.0331 -1.9012,-5.025 0,-1.69 0.4301,-3.1762 1.2901,-4.4589 0.86,-1.2827 2.0446,-2.2709 3.5535,-2.9651 1.5092,-0.6942 3.1992,-1.0411 5.0703,-1.0411 2.2935,0 4.2778,0.513 5.9528,1.5392 1.675,1.0258 2.9801,2.3992 3.9158,4.1193 l -4.165,3.2142 c -1.5389,-2.2938 -3.4404,-3.4404 -5.7036,-3.4404 -1.0564,0 -1.9391,0.2489 -2.6484,0.7469 -0.7092,0.4978 -1.0638,1.2147 -1.0638,2.1501 0,0.7846 0.2642,1.4111 0.7923,1.8788 0.5281,0.4677 1.4258,0.9884 2.6934,1.5616 l 3.3951,1.4939 c 2.505,1.1168 4.3611,2.3465 5.5681,3.6895 1.2073,1.3431 1.8108,3.0255 1.8108,5.0474 0,1.8108 -0.4527,3.3954 -1.3581,4.7531 -0.9054,1.3581 -2.1501,2.3993 -3.7347,3.1238 -1.5842,0.7243 -3.3723,1.0863 -5.3642,1.0863 z m 33.2274,-4.4363 h -12.2227 l -1.675,3.8931 h -6.5639 l 13.3543,-30.4205 h 2.037 l 13.3092,30.4205 h -6.5642 z m -6.1115,-15.1197 -3.9835,10.0948 h 7.9673 z m 47.668,-11.4077 v 30.4205 h -6.1112 v -15.9346 l -7.5147,9.4158 h -1.9919 l -7.5146,-9.4158 v 15.9346 h -6.1113 v -30.4205 h 1.992 l 12.63,16.1609 12.6298,-16.1609 z m 21.0047,30.9637 c -2.8973,0 -5.5531,-0.6789 -7.9673,-2.037 -2.4143,-1.3581 -4.3308,-3.2216 -5.7493,-5.5908 -1.4184,-2.3689 -2.1274,-4.987 -2.1274,-7.8539 0,-2.8673 0.709,-5.4851 2.1274,-7.8543 1.4185,-2.3689 3.335,-4.2327 5.7493,-5.5907 2.4142,-1.3581 5.07,-2.037 7.9673,-2.037 2.897,0 5.5604,0.6789 7.99,2.037 2.4293,1.358 4.3608,3.2218 5.7943,5.5907 1.4335,2.3692 2.1504,4.987 2.1504,7.8543 0,2.8669 -0.7169,5.485 -2.1504,7.8539 -1.4335,2.3692 -3.365,4.2327 -5.7943,5.5908 -2.4296,1.3581 -5.093,2.037 -7.99,2.037 z m 0.0453,-5.6586 c 1.8105,0 3.4478,-0.4149 4.9116,-1.2449 1.4636,-0.8297 2.6105,-1.9917 3.4404,-3.4855 0.83,-1.4939 1.2447,-3.1915 1.2447,-5.0927 0,-1.8712 -0.4147,-3.5538 -1.2447,-5.0477 -0.8299,-1.4938 -1.9768,-2.6631 -3.4404,-3.5081 -1.4638,-0.8451 -3.1011,-1.2677 -4.9116,-1.2677 -1.8411,0 -3.4857,0.415 -4.9345,1.245 -1.4485,0.83 -2.5878,1.9919 -3.4177,3.4857 -0.83,1.4939 -1.2447,3.1913 -1.2447,5.0928 0,1.9012 0.4147,3.5988 1.2447,5.0927 0.8299,1.4938 1.9692,2.6558 3.4177,3.4855 1.4488,0.83 3.0934,1.2449 4.9345,1.2449 z m 35.2191,5.6586 c -2.9276,0 -5.6058,-0.6789 -8.0354,-2.037 -2.4293,-1.3581 -4.3458,-3.2216 -5.7492,-5.5908 -1.4031,-2.3689 -2.1047,-4.987 -2.1047,-7.8539 0,-2.8673 0.7089,-5.4851 2.1274,-7.8543 1.4184,-2.3689 3.3423,-4.2327 5.7719,-5.5907 2.4293,-1.3581 5.1077,-2.037 8.0351,-2.037 2.8369,0 5.4096,0.6565 7.7184,1.9692 2.3086,1.3127 4.127,3.1312 5.4547,5.4547 l -4.6173,3.2596 c -2.1124,-3.35 -4.9643,-5.025 -8.5558,-5.025 -1.8408,0 -3.4932,0.4226 -4.957,1.2677 -1.4635,0.845 -2.6104,2.0143 -3.4404,3.5081 -0.83,1.4939 -1.2447,3.1915 -1.2447,5.0927 0,1.9015 0.4147,3.5915 1.2447,5.0704 0.83,1.4785 1.9769,2.6331 3.4404,3.4628 1.4638,0.83 3.1162,1.2449 4.957,1.2449 3.5915,0 6.4434,-1.6749 8.5558,-5.0246 l 4.6173,3.2592 c -1.2977,2.3239 -3.1084,4.142 -5.432,5.455 -2.3238,1.3127 -4.9192,1.969 -7.7862,1.969 z m 18.4243,-30.4206 h 6.1113 v 11.4531 h 13.2185 v -11.4531 h 6.1112 v 29.8774 h -6.1112 v -12.9016 h -13.2185 v 12.9016 h -6.1113 z m 46.4006,30.4206 c -2.8972,0 -5.553,-0.6789 -7.9673,-2.037 -2.4143,-1.3581 -4.3308,-3.2216 -5.7492,-5.5908 -1.4185,-2.3689 -2.1274,-4.987 -2.1274,-7.8539 0,-2.8673 0.7089,-5.4851 2.1274,-7.8543 1.4184,-2.3689 3.3349,-4.2327 5.7492,-5.5907 2.4143,-1.3581 5.0701,-2.037 7.9673,-2.037 2.8971,0 5.5605,0.6789 7.9901,2.037 2.4293,1.358 4.3608,3.2218 5.7943,5.5907 1.4334,2.3692 2.1503,4.987 2.1503,7.8543 0,2.8669 -0.7169,5.485 -2.1503,7.8539 -1.4335,2.3692 -3.365,4.2327 -5.7943,5.5908 -2.4296,1.3581 -5.093,2.037 -7.9901,2.037 z m 0.0454,-5.6586 c 1.8105,0 3.4478,-0.4149 4.9116,-1.2449 1.4635,-0.8297 2.6104,-1.9917 3.4404,-3.4855 0.83,-1.4939 1.2447,-3.1915 1.2447,-5.0927 0,-1.8712 -0.4147,-3.5538 -1.2447,-5.0477 -0.83,-1.4938 -1.9769,-2.6631 -3.4404,-3.5081 -1.4638,-0.8451 -3.1011,-1.2677 -4.9116,-1.2677 -1.8411,0 -3.4858,0.415 -4.9346,1.245 -1.4485,0.83 -2.5877,1.9919 -3.4177,3.4857 -0.83,1.4939 -1.2447,3.1913 -1.2447,5.0928 0,1.9012 0.4147,3.5988 1.2447,5.0927 0.83,1.4938 1.9692,2.6558 3.4177,3.4855 1.4488,0.83 3.0935,1.2449 4.9346,1.2449 z m 21.0498,-24.762 h 9.7781 c 3.1689,0 5.9905,0.6188 8.4651,1.8561 2.4747,1.2373 4.3988,2.9727 5.7719,5.2058 1.3731,2.2335 2.0597,4.8289 2.0597,7.7863 0,2.8972 -0.6866,5.485 -2.0597,7.7635 -1.3731,2.2788 -3.2972,4.0592 -5.7719,5.3419 -2.4746,1.2826 -5.2962,1.9238 -8.4651,1.9238 h -9.7781 z m 9.7328,24.3547 c 1.9919,0 3.7496,-0.3923 5.2738,-1.1769 1.5239,-0.7847 2.7011,-1.8939 3.5308,-3.3273 0.83,-1.4335 1.245,-3.1009 1.245,-5.0023 0,-2.8971 -0.913,-5.1758 -2.7388,-6.8355 -1.8258,-1.66 -4.2628,-2.49 -7.3108,-2.49 h -3.6216 v 18.832 z m 99.0028,-24.3547 -11.9509,30.4206 h -1.9919 l -8.3293,-18.7413 -8.375,18.7413 h -1.9916 l -11.9511,-30.4206 h 6.7904 l 6.6546,17.655 7.8315,-18.1981 h 2.037 l 7.8316,18.1074 6.6543,-17.5643 z m -294.224,72.9215 v 5.5228 h -24.4452 v -1.6297 l 14.984,-22.725 h -13.0374 v -5.5228 h 22.4532 v 1.6297 l -14.9839,22.725 z m 29.7864,6.0659 c -2.4443,0 -4.625,-0.5204 -6.5412,-1.5616 -1.9165,-1.0412 -3.4177,-2.535 -4.5043,-4.4816 -1.0865,-1.9465 -1.6296,-4.2327 -1.6296,-6.8584 v -17.519 h 6.1112 v 17.9717 c 0,2.173 0.6112,3.848 1.8335,5.025 1.2223,1.1769 2.7992,1.7654 4.7304,1.7654 1.9619,0 3.5462,-0.5885 4.7534,-1.7654 1.207,-1.177 1.8108,-2.852 1.8108,-5.025 v -17.9717 h 6.1112 v 17.519 c 0,2.6257 -0.5508,4.9119 -1.6523,6.8584 -1.1015,1.9466 -2.6104,3.4404 -4.5269,4.4816 -1.9165,1.0412 -4.0816,1.5616 -6.4962,1.5616 z m 28.5194,0 c -2.535,0 -4.8062,-0.5958 -6.8131,-1.7881 -2.0069,-1.192 -3.5835,-2.7989 -4.7304,-4.8212 l 4.21,-3.1685 c 0.9657,1.3277 2.0219,2.3839 3.1688,3.1685 1.1466,0.785 2.535,1.1773 4.1647,1.1773 1.3277,0 2.3689,-0.2943 3.1235,-0.8827 0.7546,-0.5888 1.1319,-1.3961 1.1319,-2.422 0,-0.8753 -0.2793,-1.5468 -0.8377,-2.0145 -0.5581,-0.4678 -1.5466,-1.0336 -2.965,-1.6977 l -3.2142,-1.4485 c -2.2935,-1.0262 -4.074,-2.2181 -5.3416,-3.5762 -1.2677,-1.3581 -1.9012,-3.0331 -1.9012,-5.025 0,-1.69 0.43,-3.1762 1.29,-4.4589 0.86,-1.2827 2.0446,-2.2708 3.5535,-2.965 1.5092,-0.6942 3.1992,-1.0412 5.0704,-1.0412 2.2935,0 4.2777,0.5131 5.9527,1.5392 1.675,1.0259 2.9801,2.3993 3.9158,4.1193 l -4.165,3.2142 c -1.5389,-2.2938 -3.4404,-3.4404 -5.7035,-3.4404 -1.0565,0 -1.9392,0.2489 -2.6485,0.747 -0.7092,0.4977 -1.0638,1.2146 -1.0638,2.15 0,0.7847 0.2642,1.4111 0.7923,1.8788 0.5281,0.4678 1.4258,0.9885 2.6935,1.5616 l 3.395,1.4939 c 2.505,1.1169 4.3611,2.3465 5.5681,3.6896 1.2073,1.343 1.8108,3.0254 1.8108,5.0473 0,1.8108 -0.4527,3.3954 -1.3581,4.7532 -0.9054,1.3581 -2.1501,2.3992 -3.7346,3.1238 -1.5843,0.7242 -3.3724,1.0862 -5.3643,1.0862 z m 33.2274,-4.4362 h -12.2227 l -1.675,3.8931 h -6.5639 l 13.3543,-30.4206 h 2.037 l 13.3092,30.4206 h -6.5642 z m -6.1115,-15.1197 -3.9835,10.0947 h 7.9673 z m 145.4261,-29.0109 c -2.8973,0 -5.553,-0.6789 -7.9673,-2.037 -2.4143,-1.3581 -4.3308,-3.2216 -5.7492,-5.5908 -1.4185,-2.3689 -2.1274,-4.987 -2.1274,-7.8539 0,-2.8673 0.7089,-5.4851 2.1274,-7.8543 1.4184,-2.3689 3.3349,-4.2327 5.7492,-5.5907 2.4143,-1.3581 5.07,-2.037 7.9673,-2.037 2.897,0 5.5605,0.6789 7.99,2.037 2.4293,1.358 4.3609,3.2218 5.7943,5.5907 1.4335,2.3692 2.1504,4.987 2.1504,7.8543 0,2.8669 -0.7169,5.485 -2.1504,7.8539 -1.4334,2.3692 -3.365,4.2327 -5.7943,5.5908 -2.4295,1.3581 -5.093,2.037 -7.99,2.037 z m 0.0454,-5.6586 c 1.8105,0 3.4478,-0.4149 4.9116,-1.2449 1.4635,-0.8297 2.6104,-1.9917 3.4404,-3.4855 0.83,-1.4939 1.2447,-3.1915 1.2447,-5.0927 0,-1.8712 -0.4147,-3.5538 -1.2447,-5.0477 -0.83,-1.4938 -1.9769,-2.6631 -3.4404,-3.5081 -1.4638,-0.8451 -3.1011,-1.2677 -4.9116,-1.2677 -1.8411,0 -3.4858,0.415 -4.9346,1.245 -1.4485,0.83 -2.5877,1.9919 -3.4177,3.4857 -0.83,1.4939 -1.2447,3.1913 -1.2447,5.0928 0,1.9012 0.4147,3.5988 1.2447,5.0927 0.83,1.4938 1.9692,2.6558 3.4177,3.4855 1.4488,0.83 3.0935,1.2449 4.9346,1.2449 z m 0.9051,-36.079 h 7.3338 v 1.0865 l -6.2019,7.3335 h -4.4363 z"
     style="fill:none"
     id="path5" />
</svg>
